<svg width="1200" height="360" viewBox="0 0 1200 360" fill="none" xmlns="http://www.w3.org/2000/svg" role="img" aria-labelledby="title desc">
  <title id="title">FishiFishi logo principal</title>
  <desc id="desc">Logotipo horizontal de FishiFishi con simbolo de dos peces formando una marca de confianza y texto corporativo.</desc>
  <rect width="1200" height="360" fill="#F6FAF7"/>
  <g transform="translate(78 58)">
    <rect x="0" y="0" width="244" height="244" rx="38" fill="#087F7A"/>
    <path d="M62 122C84 82 129 66 174 85C192 93 207 105 220 122C207 139 192 151 174 159C129 178 84 162 62 122Z" fill="#F7FBF8"/>
    <path d="M182 122L220 92V152L182 122Z" fill="#F7FBF8"/>
    <circle cx="92" cy="112" r="7" fill="#087F7A"/>
    <path d="M182 122C160 162 115 178 70 159C52 151 37 139 24 122C37 105 52 93 70 85C115 66 160 82 182 122Z" fill="#D75F45"/>
    <path d="M62 122L24 152V92L62 122Z" fill="#D75F45"/>
    <circle cx="152" cy="132" r="7" fill="#F7FBF8"/>
    <path d="M77 122H167" stroke="#F7FBF8" stroke-width="10" stroke-linecap="round"/>
    <path d="M118 90L142 122L118 154" stroke="#087F7A" stroke-width="12" stroke-linecap="round" stroke-linejoin="round"/>
  </g>
  <g transform="translate(376 91)">
    <text x="0" y="83" fill="#14201E" font-family="Arial, Helvetica, sans-serif" font-size="82" font-weight="800" letter-spacing="0">FishiFishi</text>
    <text x="5" y="133" fill="#5F6F6B" font-family="Arial, Helvetica, sans-serif" font-size="25" font-weight="700" letter-spacing="4">B2B SEAFOOD PLATFORM</text>
    <g transform="translate(6 164)">
      <rect x="0" y="0" width="205" height="34" rx="17" fill="#E9F3EF"/>
      <text x="18" y="23" fill="#087F7A" font-family="Arial, Helvetica, sans-serif" font-size="14" font-weight="800">PAGO ASEGURADO</text>
      <rect x="222" y="0" width="205" height="34" rx="17" fill="#F7ECE8"/>
      <text x="241" y="23" fill="#D75F45" font-family="Arial, Helvetica, sans-serif" font-size="14" font-weight="800">RECIBIDO VALIDADO</text>
    </g>
  </g>
</svg>

